# xmcd
#
# Track frame offsets:
#   150
#   15252
#   29807
#   43100
#   58720
#   75102
#   91155
#   107705
#   123412
#   141632
#   159907
#   174387
#
# Disc length: 2495 seconds
#
# Revision: 0
# Processed by: cddbd v1.4PL0 Copyright (c) Steve Scherf et al.
# Submitted via: uFREEDB 1.6.0
#
DISCID=9109bd0c
DTITLE=Tchê Garotos - Novo Rumo
DYEAR=1996
DGENRE=Gauchesca
TTITLE0=Lidas
TTITLE1=Como Eu Poderia Imaginar
TTITLE2=Você Disse Que Não
TTITLE3=Vou Pro Rodeio
TTITLE4=Não Importa
TTITLE5=Vida de Campo
TTITLE6=Lá na Campanha
TTITLE7=Enluarada
TTITLE8=Sonho ou Realidade
TTITLE9=Conheça o Rio Grande
TTITLE10=Pra Ela
TTITLE11=Compasso Fandangueiro
EXTD=
EXTT0=
EXTT1=
EXTT2=
EXTT3=
EXTT4=
EXTT5=
EXTT6=
EXTT7=
EXTT8=
EXTT9=
EXTT10=
EXTT11=
PLAYORDER=
